<mxfile host="app.diagrams.net" modified="2024-02-28T09:27:13.311Z" agent="Mozilla/5.0 (Windows NT 10.0; Win64; x64) AppleWebKit/537.36 (KHTML, like Gecko) Chrome/121.0.0.0 Safari/537.36" etag="hg6CZE42LeGtjzp57Dd-" version="21.5.0" type="device">
  <diagram name="Seite-1" id="uxfjju9i9PG_mjO08o3u">
    <mxGraphModel dx="819" dy="409" grid="0" gridSize="10" guides="1" tooltips="1" connect="1" arrows="1" fold="1" page="1" pageScale="1" pageWidth="1169" pageHeight="827" math="0" shadow="0">
      <root>
        <mxCell id="0" />
        <mxCell id="1" parent="0" />
        <mxCell id="NbruovcMLJj9p4fa_hdd-1" value="" style="rounded=1;whiteSpace=wrap;html=1;" vertex="1" parent="1">
          <mxGeometry x="320" y="40" width="440" height="280" as="geometry" />
        </mxCell>
        <mxCell id="NbruovcMLJj9p4fa_hdd-2" value="CTO" style="shape=umlActor;verticalLabelPosition=bottom;verticalAlign=top;html=1;outlineConnect=0;" vertex="1" parent="1">
          <mxGeometry x="360" y="100" width="30" height="60" as="geometry" />
        </mxCell>
        <mxCell id="NbruovcMLJj9p4fa_hdd-3" value="Technologie-Radar" style="text;html=1;strokeColor=none;fillColor=none;align=center;verticalAlign=middle;whiteSpace=wrap;rounded=0;" vertex="1" parent="1">
          <mxGeometry x="320" y="40" width="440" height="50" as="geometry" />
        </mxCell>
        <mxCell id="NbruovcMLJj9p4fa_hdd-4" value="Mitarbeiter" style="shape=umlActor;verticalLabelPosition=bottom;verticalAlign=top;html=1;outlineConnect=0;" vertex="1" parent="1">
          <mxGeometry x="360" y="210" width="30" height="60" as="geometry" />
        </mxCell>
        <mxCell id="NbruovcMLJj9p4fa_hdd-6" value="" style="endArrow=classic;html=1;rounded=0;exitX=1;exitY=0.3333333333333333;exitDx=0;exitDy=0;exitPerimeter=0;entryX=0;entryY=0.5;entryDx=0;entryDy=0;" edge="1" parent="1" source="NbruovcMLJj9p4fa_hdd-2" target="NbruovcMLJj9p4fa_hdd-7">
          <mxGeometry width="50" height="50" relative="1" as="geometry">
            <mxPoint x="400" y="160" as="sourcePoint" />
            <mxPoint x="430" y="480" as="targetPoint" />
          </mxGeometry>
        </mxCell>
        <mxCell id="NbruovcMLJj9p4fa_hdd-7" value="Technologie-Administration" style="rounded=1;whiteSpace=wrap;html=1;fillColor=#CCCCCC;" vertex="1" parent="1">
          <mxGeometry x="600" y="90" width="120" height="60" as="geometry" />
        </mxCell>
        <mxCell id="NbruovcMLJj9p4fa_hdd-8" value="Technologie-&lt;br&gt;Viewer" style="rounded=1;whiteSpace=wrap;html=1;fillColor=#CCCCCC;" vertex="1" parent="1">
          <mxGeometry x="600" y="200" width="120" height="60" as="geometry" />
        </mxCell>
        <mxCell id="NbruovcMLJj9p4fa_hdd-9" value="" style="endArrow=classic;html=1;rounded=0;exitX=1;exitY=0.3333333333333333;exitDx=0;exitDy=0;exitPerimeter=0;entryX=0;entryY=0.5;entryDx=0;entryDy=0;" edge="1" parent="1" source="NbruovcMLJj9p4fa_hdd-4" target="NbruovcMLJj9p4fa_hdd-8">
          <mxGeometry width="50" height="50" relative="1" as="geometry">
            <mxPoint x="400" y="240" as="sourcePoint" />
            <mxPoint x="450" y="190" as="targetPoint" />
          </mxGeometry>
        </mxCell>
        <mxCell id="NbruovcMLJj9p4fa_hdd-11" value="" style="rounded=1;whiteSpace=wrap;html=1;" vertex="1" parent="1">
          <mxGeometry x="320" y="400" width="440" height="280" as="geometry" />
        </mxCell>
        <mxCell id="NbruovcMLJj9p4fa_hdd-12" value="CTO" style="shape=umlActor;verticalLabelPosition=bottom;verticalAlign=top;html=1;outlineConnect=0;" vertex="1" parent="1">
          <mxGeometry x="240" y="440" width="30" height="60" as="geometry" />
        </mxCell>
        <mxCell id="NbruovcMLJj9p4fa_hdd-13" value="Whitebox: Technologie-Administration" style="text;html=1;strokeColor=none;fillColor=none;align=center;verticalAlign=middle;whiteSpace=wrap;rounded=0;" vertex="1" parent="1">
          <mxGeometry x="320" y="400" width="440" height="50" as="geometry" />
        </mxCell>
        <mxCell id="NbruovcMLJj9p4fa_hdd-15" value="" style="endArrow=classic;html=1;rounded=0;exitX=1;exitY=0.3333333333333333;exitDx=0;exitDy=0;exitPerimeter=0;entryX=0;entryY=0.5;entryDx=0;entryDy=0;" edge="1" parent="1" source="NbruovcMLJj9p4fa_hdd-12" target="NbruovcMLJj9p4fa_hdd-16">
          <mxGeometry width="50" height="50" relative="1" as="geometry">
            <mxPoint x="400" y="520" as="sourcePoint" />
            <mxPoint x="430" y="840" as="targetPoint" />
          </mxGeometry>
        </mxCell>
        <mxCell id="NbruovcMLJj9p4fa_hdd-16" value="Technologie-Administration" style="rounded=1;whiteSpace=wrap;html=1;fillColor=#CCCCCC;" vertex="1" parent="1">
          <mxGeometry x="460" y="470" width="120" height="60" as="geometry" />
        </mxCell>
        <mxCell id="NbruovcMLJj9p4fa_hdd-27" value="Technologie-&lt;br&gt;Detail" style="rounded=1;whiteSpace=wrap;html=1;fillColor=#CCCCCC;" vertex="1" parent="1">
          <mxGeometry x="460" y="580" width="120" height="60" as="geometry" />
        </mxCell>
        <mxCell id="NbruovcMLJj9p4fa_hdd-28" value="" style="endArrow=classic;html=1;rounded=0;exitX=1;exitY=0.3333333333333333;exitDx=0;exitDy=0;exitPerimeter=0;entryX=0;entryY=0.5;entryDx=0;entryDy=0;" edge="1" parent="1" source="NbruovcMLJj9p4fa_hdd-12" target="NbruovcMLJj9p4fa_hdd-27">
          <mxGeometry width="50" height="50" relative="1" as="geometry">
            <mxPoint x="260" y="560" as="sourcePoint" />
            <mxPoint x="450" y="600" as="targetPoint" />
          </mxGeometry>
        </mxCell>
      </root>
    </mxGraphModel>
  </diagram>
</mxfile>
